# xmcd
#
# Track frame offsets:
#  150
#  9767
#  26535
#  40797
#  60335
#  74980
#  91272
#  109825
#  127355
#  140777
#  159030
#  169125
#  184110
#
# Disc length: 2960 seconds
#
# Revision: 1
# Processed by: cddbd v1.5.1PL2 Copyright (c) Steve Scherf et al.
# Submitted via: Collectorz.com_Music_Collector 6.11
#
DISCID=ae0b8e0d
DTITLE=Tammy Rogers - Tammy Rogers
DYEAR=1996
DGENRE=Country, Traditional 
TTITLE0=Coming Home
TTITLE1=Never Far Away
TTITLE2=Oh, Heartache
TTITLE3=Walls
TTITLE4=Come Out And Play
TTITLE5=Nothing At All
TTITLE6=You Will Miss Me
TTITLE7=Ticket To Heaven
TTITLE8=On A Night Like Tonight
TTITLE9=Let's Leave It Like That
TTITLE10=Something Old, Something New
TTITLE11=Another Day
TTITLE12=There Is A Fountain
EXTD=
EXTT0=
EXTT1=
EXTT2=
EXTT3=
EXTT4=
EXTT5=
EXTT6=
EXTT7=
EXTT8=
EXTT9=
EXTT10=
EXTT11=
EXTT12=
PLAYORDER=
